<svg width="65" height="40" viewBox="0 0 65 40" fill="none" xmlns="http://www.w3.org/2000/svg">
<path d="M9.62451 31.9664C9.62451 31.9664 15.3621 29.5074 17.0014 27.8681C18.6407 26.2288 13.7228 26.2288 13.7228 18.0323C13.7228 9.83582 20.28 9.83582 20.28 9.83582C20.28 9.83582 26.8372 9.83582 26.8372 18.0323C26.8372 26.2288 21.9193 26.2288 23.5586 27.8681C25.1979 29.5074 30.9354 31.9664 30.9354 31.9664" stroke="#5E5E5E" stroke-width="1.94" stroke-linecap="round"/>
<path fill-rule="evenodd" clip-rule="evenodd" d="M20.2802 36.0646C29.3338 36.0646 36.6732 28.7252 36.6732 19.6716C36.6732 10.618 29.3338 3.27856 20.2802 3.27856C11.2266 3.27856 3.88721 10.618 3.88721 19.6716C3.88721 28.7252 11.2266 36.0646 20.2802 36.0646Z" stroke="#5E5E5E" stroke-width="1.94"/>
<path d="M47.1001 17.4417L55.5001 25.8416L63.9001 17.4417" stroke="#5E5E5E" stroke-width="1.6" stroke-linecap="round"/>
</svg>
