<svg width="26" height="26" viewBox="0 0 26 26" fill="none" xmlns="http://www.w3.org/2000/svg">
<g clip-path="url(#clip0_346_81)">
<path d="M25.342 13.9985C25.342 7.1806 19.818 1.65662 13.0001 1.65662C6.18219 1.65662 0.658203 7.1806 0.658203 13.9985C0.658203 20.1585 5.17145 25.2644 11.0717 26.1911V17.5662H7.93643V13.9985H11.0717V11.2793C11.0717 8.18636 12.913 6.47791 15.7332 6.47791C17.0838 6.47791 18.4962 6.71878 18.4962 6.71878V9.75448H16.9395C15.4067 9.75448 14.9285 10.706 14.9285 11.6819V13.9985H18.3514L17.804 17.5662H14.9285V26.1911C20.8287 25.2644 25.342 20.1585 25.342 13.9985Z" fill="#F9F9F9"/>
</g>
<defs>
<clipPath id="clip0_346_81">
<rect width="26" height="26" fill="white"/>
</clipPath>
</defs>
</svg>
