<svg width="25" height="29" viewBox="0 0 25 29" fill="none" xmlns="http://www.w3.org/2000/svg">
<g clip-path="url(#clip0_346_83)">
<path d="M12.5053 8.11658C9.02717 8.11658 6.2217 10.9641 6.2217 14.4944C6.2217 18.0247 9.02717 20.8723 12.5053 20.8723C15.9834 20.8723 18.7889 18.0247 18.7889 14.4944C18.7889 10.9641 15.9834 8.11658 12.5053 8.11658ZM12.5053 18.6409C10.2576 18.6409 8.42014 16.7814 8.42014 14.4944C8.42014 12.2075 10.2522 10.348 12.5053 10.348C14.7584 10.348 16.5905 12.2075 16.5905 14.4944C16.5905 16.7814 14.753 18.6409 12.5053 18.6409ZM20.5116 7.8557C20.5116 8.68276 19.8553 9.34331 19.0459 9.34331C18.2311 9.34331 17.5803 8.67721 17.5803 7.8557C17.5803 7.03418 18.2366 6.36809 19.0459 6.36809C19.8553 6.36809 20.5116 7.03418 20.5116 7.8557ZM24.6733 9.36551C24.5803 7.37278 24.1319 5.60763 22.6936 4.15333C21.2608 2.69902 19.5217 2.24386 17.5584 2.14394C15.535 2.02738 9.47014 2.02738 7.44671 2.14394C5.48889 2.23831 3.74983 2.69347 2.31155 4.14778C0.873267 5.60208 0.430298 7.36723 0.33186 9.35996C0.217017 11.4137 0.217017 17.5696 0.33186 19.6234C0.424829 21.6161 0.873267 23.3812 2.31155 24.8355C3.74983 26.2898 5.48342 26.745 7.44671 26.8449C9.47014 26.9615 15.535 26.9615 17.5584 26.8449C19.5217 26.7506 21.2608 26.2954 22.6936 24.8355C24.1264 23.3812 24.5748 21.6161 24.6733 19.6234C24.7881 17.5696 24.7881 11.4193 24.6733 9.36551ZM22.0592 21.827C21.6326 22.915 20.8069 23.7531 19.7295 24.1916C18.1162 24.8411 14.2881 24.6912 12.5053 24.6912C10.7225 24.6912 6.88889 24.8355 5.28108 24.1916C4.2092 23.7587 3.38342 22.9205 2.95139 21.827C2.31155 20.1895 2.4592 16.304 2.4592 14.4944C2.4592 12.6849 2.31702 8.79378 2.95139 7.16185C3.37795 6.0739 4.20374 5.23573 5.28108 4.79722C6.89436 4.14778 10.7225 4.29765 12.5053 4.29765C14.2881 4.29765 18.1217 4.15333 19.7295 4.79722C20.8014 5.23018 21.6272 6.06835 22.0592 7.16185C22.6991 8.79933 22.5514 12.6849 22.5514 14.4944C22.5514 16.304 22.6991 20.1951 22.0592 21.827Z" fill="#F9F9F9"/>
</g>
<defs>
<clipPath id="clip0_346_83">
<rect width="24.5" height="28.42" fill="white" transform="translate(0.25 0.290039)"/>
</clipPath>
</defs>
</svg>
